<?xml version="1.0" encoding="UTF-8" standalone="no"?><!DOCTYPE svg PUBLIC "-//W3C//DTD SVG 1.1//EN" "http://www.w3.org/Graphics/SVG/1.1/DTD/svg11.dtd"><svg width="100%" height="100%" viewBox="0 0 3300 2550" version="1.1" xmlns="http://www.w3.org/2000/svg" xmlns:xlink="http://www.w3.org/1999/xlink" xml:space="preserve" xmlns:serif="http://www.serif.com/" style="fill-rule:evenodd;clip-rule:evenodd;stroke-linecap:round;stroke-linejoin:round;stroke-miterlimit:1.5;"><path d="M407.973,375.277l80.491,1.56l48.199,57.019l-13.251,91.608l-48.176,30.463l-75.073,-36.456l-44.558,-56.413l23.894,-59.578l28.474,-28.203Z" style="fill:#5e5e5e;stroke:#000;stroke-width:1px;"/><path d="M663.446,424.423l15.044,59.277l-30.56,46.329l-67.291,7.984l-31.156,-29.415l10.662,-62.048l30.864,-43.544l46.827,6.001l25.61,15.416Z" style="fill:#5e5e5e;stroke:#000;stroke-width:1px;"/><path d="M1066.87,397.451c-0,91.601 -0,220.587 -0,258.944c-0,2.936 -1.166,5.751 -3.242,7.826c-2.075,2.076 -4.89,3.242 -7.826,3.242c-43.276,0 -199.525,0 -241.478,0c-5.702,0 -10.324,-4.622 -10.324,-10.323c0,-51.984 0,-282.959 0,-342.506c0,-7.697 6.24,-13.936 13.936,-13.936c0,-0 152.181,-0 152.181,-0l96.753,96.753Z" style="fill:#c1c1a2;"/><g id="Layer1"><rect x="841.984" y="540.517" width="192.259" height="18.008" style="fill:#5f5f5f;"/><rect x="843.772" y="589.171" width="128.89" height="18.008" style="fill:#5f5f5f;"/><rect x="843.323" y="493.681" width="153.428" height="18.008" style="fill:#5f5f5f;"/><path d="M970.147,300.736l-1.335,-0.035l10.036,95.668l87.997,1.093l-96.698,-96.726Z" style="fill:#b5b777;"/><path d="M1665.39,512.837c29.781,-6.974 59.032,9.027 65.28,35.709c6.249,26.682 -12.856,54.007 -42.637,60.982c-29.781,6.974 -59.032,-9.027 -65.281,-35.709c-6.248,-26.683 12.857,-54.008 42.638,-60.982Z" style="fill:none;stroke:#5f5f5f;stroke-width:29.17px;"/><path d="M1631.48,567.351l-344.544,-71.545" style="fill:none;stroke:#5f5f5f;stroke-width:50px;stroke-linecap:butt;"/><path d="M1283.13,518.975l-14.958,-35.309l24.524,-11.831l-9.566,47.14Z" style="fill:none;"/><path d="M1282.29,520.103l-12.762,-27.555l22.762,-21.052l-10,48.607Z" style="fill:#5f5f5f;"/><path d="M1620.77,399.199c20.968,-22.269 54.189,-25.096 74.141,-6.31c19.952,18.786 19.128,52.118 -1.84,74.386c-20.968,22.269 -54.189,25.097 -74.141,6.31c-19.952,-18.786 -19.127,-52.117 1.84,-74.386Z" style="fill:none;stroke:#5f5f5f;stroke-width:29.17px;"/><path d="M1622.63,463.374l-326.699,130.754" style="fill:none;stroke:#5f5f5f;stroke-width:50px;stroke-linecap:butt;"/><path d="M1305.56,615.541l-31.977,-21.163l13.902,-23.412l18.075,44.575Z" style="fill:none;"/><path d="M1305.48,616.946l-25.862,-15.915l7.339,-30.123l18.523,46.038Z" style="fill:#5f5f5f;"/></g></svg>