<?xml version="1.0" encoding="UTF-8" standalone="no"?><!DOCTYPE svg PUBLIC "-//W3C//DTD SVG 1.1//EN" "http://www.w3.org/Graphics/SVG/1.1/DTD/svg11.dtd"><svg width="100%" height="100%" viewBox="0 0 1824 1963" version="1.1" xmlns="http://www.w3.org/2000/svg" xmlns:xlink="http://www.w3.org/1999/xlink" xml:space="preserve" xmlns:serif="http://www.serif.com/" style="fill-rule:evenodd;clip-rule:evenodd;stroke-linejoin:round;stroke-miterlimit:2;"><rect id="Artboard1" x="0" y="0" width="1823.79" height="1962.19" style="fill:none;"/><path d="M1416.12,714.379l0,1078.93c0,12.233 -4.858,23.962 -13.508,32.608c-8.646,8.65 -20.375,13.508 -32.609,13.508l-1006.16,0c-23.758,0 -43.017,-19.258 -43.017,-43.012l0,-1427.11c0,-32.071 26,-58.066 58.067,-58.066l634.087,-0l403.138,403.137Z" style="fill:#c1c1a2;"/><g id="Layer1"><rect x="479.1" y="1310.49" width="801.079" height="75.033" style="fill:#5f5f5f;"/><rect x="486.55" y="1513.21" width="537.042" height="75.033" style="fill:#5f5f5f;"/><rect x="484.679" y="1115.34" width="639.283" height="75.033" style="fill:#5f5f5f;"/><path d="M1013.11,311.4l-5.563,-0.146l41.817,398.617l366.654,4.554l-402.908,-403.025Z" style="fill:#b5b777;"/></g></svg>