<?xml version="1.0" encoding="UTF-8" standalone="no"?><!DOCTYPE svg PUBLIC "-//W3C//DTD SVG 1.1//EN" "http://www.w3.org/Graphics/SVG/1.1/DTD/svg11.dtd"><svg width="100%" height="100%" viewBox="0 0 2437 1622" version="1.1" xmlns="http://www.w3.org/2000/svg" xmlns:xlink="http://www.w3.org/1999/xlink" xml:space="preserve" xmlns:serif="http://www.serif.com/" style="fill-rule:evenodd;clip-rule:evenodd;stroke-linecap:round;stroke-linejoin:round;stroke-miterlimit:1.5;"><rect id="Artboard1" x="0" y="0" width="2436.41" height="1621.53" style="fill:none;"/><g id="Layer1"><path d="M1827.75,834.477c124.088,-29.058 245.967,37.613 272,148.788c26.038,111.175 -53.566,225.029 -177.654,254.091c-124.087,29.059 -245.966,-37.612 -272.004,-148.787c-26.033,-111.179 53.571,-225.034 177.658,-254.092Z" style="fill:none;stroke:#a5a5a5;stroke-width:121.54px;"/><path d="M1686.46,1061.62l-1435.6,-298.104" style="fill:none;stroke:#a5a5a5;stroke-width:208.33px;stroke-linecap:butt;"/><path d="M231.503,864.752l-53.175,-114.812l94.842,-87.717l-41.667,202.529Z" style="fill:#a5a5a5;stroke:#a5a5a5;stroke-width:4.17px;stroke-linecap:butt;stroke-miterlimit:2;"/><path d="M1641.84,360.985c87.366,-92.787 225.787,-104.566 308.921,-26.291c83.133,78.275 79.7,217.158 -7.667,309.941c-87.367,92.788 -225.788,104.571 -308.921,26.292c-83.133,-78.275 -79.696,-217.154 7.667,-309.942Z" style="fill:none;stroke:#bdbbbb;stroke-width:121.54px;"/><path d="M1649.59,628.381l-1361.25,544.809" style="fill:none;stroke:#bdbbbb;stroke-width:208.33px;stroke-linecap:butt;"/><path d="M328.128,1268.27l-107.758,-66.313l30.579,-125.512l77.179,191.825Z" style="fill:#bdbbbb;stroke:#bdbbbb;stroke-width:4.17px;stroke-linecap:butt;stroke-miterlimit:2;"/></g></svg>